<svg width="260" height="84" xmlns="http://www.w3.org/2000/svg"><path d="M259.096 48.007H242.31c-.076-.335-.173-.701-.24-1.073-.71-3.926-3.867-7.085-7.708-7.48-5.894-.605-10.245 1.661-11.833 7.854-1.222 4.766-1.175 9.583.229 14.316 1.43 4.82 5.278 7.401 10.449 7.179 4.713-.202 8.047-3.111 8.885-7.748.053-.292.134-.58.206-.885h16.903c-.287 1.773-.455 3.508-.859 5.186-1.214 5.04-3.715 9.336-7.709 12.697-2.974 2.503-6.418 4.038-10.226 4.745-7.139 1.326-14.13.969-20.817-2.097-4.671-2.142-8.22-5.572-10.812-9.973-3.241-5.504-4.25-11.539-4.089-17.838.102-4.013.695-7.93 2.182-11.677 3.309-8.337 9.244-13.792 18.041-15.702 7.028-1.526 14.076-1.336 20.779 1.63 5.405 2.391 9.118 6.536 11.42 11.945 1.202 2.828 1.81 5.799 1.985 8.921zM29.849 66.736c.116-.221.278-.429.342-.664 1.776-6.514 3.539-13.033 5.311-19.548 1.812-6.662 3.639-13.32 5.438-19.986.189-.702.522-.94 1.265-.935 4.893.035 9.787.018 14.68.018 1.323 0 1.538.282 1.144 1.548-.475 1.526-.968 3.046-1.454 4.568-3.487 10.913-6.971 21.826-10.461 32.738-1.837 5.742-3.695 11.477-5.514 17.224-.198.626-.477.843-1.136.841-6.585-.023-13.17-.025-19.755.004-.652.003-.889-.249-1.069-.806-2.16-6.715-4.338-13.425-6.509-20.136L2.086 30.537c-.38-1.176-.789-2.343-1.149-3.525-.328-1.076-.091-1.389.996-1.389 5.014-.002 10.029.017 15.043-.019.817-.006 1.146.268 1.361 1.048 2.397 8.658 4.832 17.305 7.255 25.955 1.22 4.354 2.436 8.71 3.658 13.064.096.34.229.67.344 1.005l.255.06zm86.042.002c.113-.253.262-.497.334-.762 1.667-6.104 3.321-12.212 4.986-18.316 1.705-6.253 3.419-12.504 5.128-18.756.238-.872.415-1.767.737-2.607.113-.294.573-.645.877-.647 5.164-.04 10.328-.022 15.492-.034.967-.002.831.645.685 1.183-.34 1.249-.759 2.477-1.153 3.712-2.675 8.385-5.347 16.77-8.028 25.153-2.305 7.205-4.62 14.407-6.93 21.611-.478 1.492-.983 2.976-1.419 4.481-.175.605-.476.785-1.091.783-6.583-.02-13.167-.026-19.75.007-.698.003-.935-.284-1.118-.863-.977-3.073-1.977-6.139-2.97-9.207-3.239-10.007-6.479-20.013-9.717-30.02-1.651-5.103-3.305-10.206-4.946-15.312-.391-1.215-.159-1.521 1.085-1.521 4.953-.001 9.905.015 14.858-.016.782-.005 1.177.188 1.401 1.005 1.671 6.104 3.393 12.195 5.101 18.289 1.96 6.994 3.92 13.987 5.883 20.98.079.283.188.557.283.836l.272.021zm-34.49-41.044v56.79H64.74v-56.79h16.661zm-8.318-5.79c-2.425-.067-4.881-.466-6.916-2.152-2.74-2.27-3.317-5.38-3.06-8.677.421-5.388 3.659-8.432 9.174-8.596 1.691-.05 3.472.111 5.077.61 3.595 1.119 5.464 3.794 5.83 7.504.379 3.847-.366 7.289-3.788 9.646-1.86 1.28-3.996 1.609-6.317 1.665zm124.483 25.48c-.001-2.367-.261-4.7-1.082-6.939-2.112-5.763-6.246-9.603-11.861-11.696-7.821-2.916-15.819-2.904-23.69-.196-6.51 2.24-10.677 6.846-12.27 13.611-.325 1.38-.361 2.828-.531 4.249h15.695c.042-.191.09-.335.102-.481.163-1.959 1.158-3.412 2.807-4.391 2.857-1.696 5.93-1.636 9.036-.915 2.707.628 4.485 2.335 4.85 5.086.259 1.953.05 3.967.05 6.059-3.745-1.222-7.613-1.55-11.518-1.573-4.185-.024-8.33.297-12.306 1.729-3.939 1.418-7.124 3.788-9.13 7.547-1.863 3.491-2.232 7.241-1.679 11.086.903 6.285 4.377 10.691 10.155 13.204 3.725 1.62 7.698 1.96 11.722 1.644 4.847-.38 9.185-1.942 12.611-5.563.188-.199.454-.322.8-.561.377 1.586.752 3.011 1.04 4.453.125.625.364.814 1.009.809 4.44-.032 8.88-.016 13.32-.019.264 0 .528-.029.824-.046.019-.288.048-.524.048-.759.001-12.115.003-24.226-.002-36.338zm-22.085 24.001c-2.846 1.213-5.849 1.414-8.869.628-3.403-.885-5.189-4.27-3.789-7.195.87-1.817 2.54-2.635 4.366-3.064 1.28-.301 2.625-.327 3.941-.475 3.043.205 6.015.606 8.89 1.647.677.245.856.556.806 1.23-.262 3.544-2.205 5.892-5.345 7.229z" fill="#404041"/></svg>