<svg width="260" height="148" xmlns="http://www.w3.org/2000/svg"><g fill="none"><path d="M259.096 47.673H242.31c-.076-.335-.173-.701-.24-1.073-.71-3.926-3.866-7.085-7.708-7.48-5.894-.605-10.245 1.661-11.833 7.854-1.222 4.766-1.176 9.583.229 14.316 1.43 4.82 5.278 7.401 10.449 7.179 4.713-.202 8.047-3.111 8.885-7.748.053-.292.134-.58.206-.885h16.903c-.287 1.773-.455 3.508-.859 5.186-1.214 5.04-3.715 9.336-7.709 12.697-2.974 2.503-6.418 4.038-10.225 4.745-7.139 1.326-14.13.969-20.817-2.097-4.671-2.142-8.22-5.572-10.812-9.973-3.241-5.504-4.25-11.539-4.089-17.838.102-4.013.694-7.93 2.182-11.677 3.309-8.337 9.244-13.792 18.041-15.702 7.028-1.526 14.076-1.336 20.779 1.63 5.405 2.391 9.118 6.536 11.42 11.945 1.201 2.827 1.809 5.798 1.984 8.921zM29.849 66.401c.116-.221.278-.429.342-.663 1.776-6.514 3.539-13.033 5.311-19.548 1.812-6.662 3.639-13.32 5.438-19.986.189-.702.522-.94 1.265-.935 4.893.035 9.787.018 14.68.018 1.323 0 1.538.282 1.144 1.548-.475 1.526-.968 3.046-1.454 4.568-3.487 10.913-6.971 21.826-10.461 32.738-1.837 5.742-3.695 11.477-5.513 17.224-.198.626-.477.843-1.136.841-6.585-.023-13.17-.025-19.755.004-.652.003-.889-.249-1.069-.806-2.16-6.715-4.338-13.425-6.509-20.136-3.349-10.355-6.696-20.71-10.046-31.065-.38-1.176-.788-2.343-1.149-3.525-.328-1.076-.091-1.389.996-1.389 5.014-.002 10.029.017 15.043-.019.818-.006 1.146.268 1.361 1.048 2.397 8.658 4.832 17.305 7.255 25.955 1.22 4.354 2.436 8.71 3.658 13.064.096.34.229.67.344 1.005l.255.059zm86.042.002c.113-.253.262-.497.334-.762 1.667-6.104 3.321-12.212 4.986-18.316 1.705-6.253 3.419-12.504 5.128-18.756.238-.872.415-1.767.737-2.607.112-.294.573-.645.877-.647 5.164-.04 10.328-.022 15.492-.034.967-.002.831.645.685 1.183-.34 1.249-.759 2.477-1.153 3.712-2.675 8.385-5.347 16.77-8.028 25.153-2.305 7.205-4.62 14.407-6.93 21.611-.479 1.492-.983 2.976-1.42 4.481-.175.605-.476.785-1.091.783-6.583-.02-13.167-.026-19.75.007-.698.003-.934-.284-1.118-.863-.977-3.073-1.977-6.139-2.97-9.207-3.239-10.007-6.479-20.013-9.717-30.02-1.651-5.103-3.305-10.206-4.947-15.312-.391-1.215-.158-1.521 1.085-1.521 4.953-.001 9.905.015 14.858-.016.782-.005 1.177.188 1.401 1.005 1.671 6.104 3.394 12.195 5.101 18.289 1.96 6.994 3.92 13.987 5.883 20.98.079.283.188.557.283.836l.274.021zm-34.49-41.044v56.79H64.74v-56.79h16.661zm-8.318-5.79c-2.425-.067-4.881-.466-6.916-2.152-2.74-2.27-3.317-5.38-3.06-8.677.421-5.388 3.659-8.432 9.174-8.596 1.691-.05 3.472.111 5.077.61 3.595 1.119 5.464 3.794 5.83 7.504.379 3.847-.366 7.289-3.788 9.646-1.86 1.28-3.996 1.609-6.317 1.665zm124.483 25.48c-.001-2.367-.261-4.7-1.082-6.939-2.112-5.763-6.246-9.603-11.861-11.696-7.821-2.916-15.82-2.904-23.69-.196-6.51 2.24-10.677 6.846-12.27 13.611-.325 1.38-.361 2.828-.531 4.249h15.695c.042-.191.09-.335.102-.481.163-1.959 1.158-3.412 2.807-4.391 2.857-1.696 5.93-1.636 9.035-.915 2.707.628 4.485 2.335 4.85 5.086.259 1.953.05 3.967.05 6.059-3.745-1.222-7.613-1.55-11.518-1.573-4.185-.024-8.33.297-12.306 1.729-3.939 1.418-7.124 3.788-9.13 7.547-1.863 3.491-2.232 7.241-1.679 11.086.903 6.285 4.377 10.691 10.156 13.204 3.725 1.62 7.698 1.96 11.722 1.644 4.847-.38 9.185-1.942 12.611-5.563.188-.199.454-.322.801-.561.376 1.586.752 3.011 1.04 4.453.125.625.364.814 1.009.809 4.44-.032 8.88-.016 13.32-.019.264 0 .528-.029.824-.046.019-.288.048-.524.048-.759 0-12.114.002-24.226-.003-36.338zm-22.085 24.002c-2.847 1.213-5.849 1.414-8.869.628-3.403-.885-5.189-4.27-3.789-7.195.87-1.817 2.54-2.635 4.366-3.064 1.28-.301 2.625-.327 3.941-.475 3.043.205 6.015.606 8.89 1.647.677.245.856.556.806 1.23-.262 3.543-2.205 5.891-5.345 7.229z" fill="#404041"/><g fill="#81CDC0"><path d="M74.117 105.103c3.404-5.117-6.534-4.273-8.633-3.862-4.728.926-13.476 4-14.315 9.711-1.01 6.872 6.401 7.173 10.601 9.186 7.714 3.697-2.425 8.968-6.14 11.119-4.491 2.6-9.266 4.336-14.299 5.53-2.193.521-1.041 3.834 1.141 3.316 5.922-1.406 11.539-3.643 16.697-6.893 3.131-1.973 10.373-6.116 10.576-10.515.162-3.507-3.444-5.009-6.261-5.772-1.863-.504-8.045-1.154-8.288-3.441-.328-3.071 1.98-5.128 4.311-6.382 1.587-.854 3.138-1.532 4.883-2.019 1.491-.416 3.962-.176 5.625-.063 1.821.204 3.304.631 4.102.085zM92.866 74.22l-22.724 71.653c-.635 2.002 2.327 2.703 3.286 1.133a541.172 541.172 0 0 1 27.162-40.323l-3.03-1.509-6.31 24.451c-1.192 4.617-2.712 9.233.851 13.083.841.909 2.185.337 2.731-.522a1388.378 1388.378 0 0 0 19.638-31.862c1.16-1.94-1.981-3.504-3.133-1.577a1390.547 1390.547 0 0 1-19.638 31.862l2.731-.522c-3.276-3.542 1.157-13.256 2.179-17.215l4.39-17.009c.422-1.635-1.993-2.908-3.03-1.509a551.212 551.212 0 0 0-27.673 41.075l3.286 1.133 22.724-71.653c.68-2.149-2.764-2.821-3.44-.689z"/><path d="M111.465 108.765c-2.687 6.986-5.047 14.082-6.948 21.324-.719 2.74-2.903 8.234.673 10.119 3.728 1.965 6.695-3.386 8.443-5.651 5.023-6.511 6.667-9.486 11.691-15.997 1.374-1.781-.83-3.59-2.21-1.801-2.74 3.551-2.512 3.039-5.252 6.59-1.37 1.776-2.546 3.996-3.916 5.771-1.213 1.571-3.259 4.839-4.989 5.77-2.704 1.456-1.865-.735-1.273-3.05a185.895 185.895 0 0 1 1.745-6.355c1.504-5.124 3.253-10.16 5.17-15.143.802-2.09-2.324-3.682-3.134-1.577z"/><path d="M143.804 114.966c-3.965-6.167-12.517-6.381-17.928-1.893-4.66 3.864-10.75 17.181-5.889 22.684 8.629 9.768 34.01-38.206 36.926-44.358l-3.133-1.577c-4.554 9.676-9.11 19.352-13.566 29.074-2.132 4.652-4.442 9.288-6.218 14.09-1.05 2.839-2.687 6.658-1.944 9.672 1.267 5.137 5.852 1.842 8.202-.658 6.893-7.337 13.055-15.381 18.739-23.678l-2.877-1.953c-1.921 4.958-3.297 10.01-3.773 15.324-.304 3.393-.998 8.011.744 11.125 3.617 6.464 10.096.58 12.447-3.436 1.142-1.952-1.998-3.516-3.133-1.577l-1.759 2.714c-2.248 2.474-5.272.584-5.196-3.12-.113-2.117.312-5.153.573-7.201.538-4.226 1.693-8.285 3.23-12.252.654-1.688-1.666-3.721-2.877-1.953-3.866 5.644-7.951 11.121-12.338 16.372-1.61 1.927-4.086 6.313-6.401 7.306-3.145 1.349-1.618-1.471-1.044-3.357.589-1.932 1.318-3.745 2.118-5.6 5.719-13.251 12.061-26.258 18.207-39.315.961-2.041-2.165-3.619-3.133-1.577-5.791 12.216-12.835 23.76-21.27 34.338-1.639 2.056-3.665 5.776-5.935 7.043-.541.318-1.918.449-2.567.339-1.679-.218-1.646-1.988-1.625-3.016.165-1.168.375-2.351.666-3.494.968-3.801 2.78-8.055 6.3-10.186 3.776-2.286 9.07-1.772 11.537 2.066 1.222 1.901 4.139-.046 2.917-1.946z"/><path d="M180.314 113.713c-6.583-1.171-12.043 2.591-14.837 8.465-2.59 5.445-4.521 14.122-.236 19.249 10.131 12.123 26.085-11.285 27.169-20.321 1.436-11.975-12.904-21.395-20.758-9.921-3.578 5.227-2.34 11.896 1.594 16.546 4.963 5.868 12.924 7.419 20.255 6.567 14.939-1.737 32.146-14.797 24.444-31.499-.936-2.029-4.263-.912-3.316 1.141 5.21 11.297-3.466 21.461-13.798 25.112-5.108 1.805-11.158 2.721-16.499 1.399-6.515-1.612-13.308-7.875-10.781-15.173 2.841-8.203 13.055-7.023 15.135 1.1 1.556 6.076-2.266 12.354-5.926 16.858-1.924 2.367-4.114 4.698-6.746 6.283l-2.7 1.323c-5.641.903-8.018-4.014-6.884-9.101.567-6.978 4.785-16.086 13.195-14.59 2.22.395 2.916-3.042.689-3.438zM50.047 96.27a1473.042 1473.042 0 0 1 95.647-3.391c2.255-.007 2.001-3.505-.251-3.498a1472.333 1472.333 0 0 0-95.647 3.391c-2.248.153-2.007 3.652.251 3.498zm115.578-1.193l-5.502 11.614c-.966 2.04 2.165 3.619 3.133 1.577l5.502-11.614c.966-2.039-2.165-3.619-3.133-1.577z"/></g></g></svg>